/* XPM */
static char *jojo1729178569[] = {
/* columns rows colors chars-per-pixel */
"64 64 256 2 ",
"   c #2A191A",
".  c #3B1B19",
"X  c #31120C",
"o  c #3A241B",
"O  c #3A2A0A",
"+  c #2A1C24",
"@  c #391A26",
"#  c #351C31",
"$  c #1E3735",
"%  c #2A2326",
"&  c #3B2A2B",
"*  c #382629",
"=  c #282935",
"-  c #372934",
";  c #2A3739",
":  c #393539",
">  c #35362C",
",  c #1E100F",
"<  c #46190A",
"1  c #561A05",
"2  c #4B1B0F",
"3  c #7A1E00",
"4  c #55230B",
"5  c #46261A",
"6  c #572717",
"7  c #4E3015",
"8  c #68270A",
"9  c #792908",
"0  c #772D14",
"q  c #773417",
"w  c #682F16",
"e  c #461D2A",
"r  c #4D1F32",
"t  c #442C25",
"y  c #442D2B",
"u  c #482628",
"i  c #552A2A",
"p  c #48342B",
"a  c #59322C",
"s  c #4C2B3B",
"d  c #472737",
"f  c #542B34",
"g  c #5B2D33",
"h  c #542C3B",
"j  c #5B2E3B",
"k  c #542536",
"l  c #443333",
"z  c #43323D",
"x  c #4C3A3C",
"c  c #4A3837",
"v  c #533334",
"b  c #55333B",
"n  c #5B333C",
"m  c #573938",
"M  c #643335",
"N  c #65363A",
"B  c #6C3526",
"V  c #39453A",
"C  c #29423C",
"Z  c #4B453B",
"A  c #564336",
"S  c #57452D",
"D  c #704932",
"F  c #1A3849",
"G  c #2A3A43",
"H  c #3D3443",
"J  c #383A47",
"K  c #38384D",
"L  c #4B2A46",
"P  c #542C43",
"I  c #5A2E44",
"U  c #5B2E49",
"Y  c #4C3C43",
"T  c #443C4C",
"R  c #483846",
"E  c #543343",
"W  c #5B3344",
"Q  c #543B42",
"!  c #5A3A43",
"~  c #54344B",
"^  c #5C344B",
"/  c #5C3A4C",
"(  c #523B4C",
")  c #4A3A53",
"_  c #533C54",
"`  c #5D3B54",
"'  c #5A3D5B",
"]  c #573655",
"[  c #4A2F52",
"{  c #61354D",
"}  c #633B4D",
"|  c #6A3C4B",
" . c #653743",
".. c #643552",
"X. c #633B53",
"o. c #693E54",
"O. c #653E5A",
"+. c #693C58",
"@. c #743F4B",
"#. c #4A3A63",
"$. c #533B64",
"%. c #663E62",
"&. c #195159",
"*. c #27474A",
"=. c #38474B",
"-. c #294954",
";. c #3B4B53",
":. c #374A56",
">. c #295458",
",. c #38575B",
"<. c #3A544D",
"1. c #1A5963",
"2. c #295766",
"3. c #3A5966",
"4. c #345367",
"5. c #29656B",
"6. c #386566",
"7. c #2A6A78",
"8. c #396877",
"9. c #377279",
"0. c #34625F",
"q. c #44434C",
"w. c #4A4548",
"e. c #53444C",
"r. c #574648",
"t. c #59544B",
"y. c #4B4453",
"u. c #484957",
"i. c #534553",
"p. c #5C4354",
"a. c #534B53",
"s. c #5B4C54",
"d. c #5D435B",
"f. c #544B5B",
"g. c #5B4C5C",
"h. c #55455A",
"j. c #4B535C",
"k. c #45575A",
"l. c #5B535A",
"z. c #575558",
"x. c #664848",
"c. c #644354",
"v. c #63435B",
"b. c #624C5D",
"n. c #6B4559",
"m. c #754757",
"M. c #65575A",
"N. c #6C524B",
"B. c #536457",
"V. c #68645C",
"C. c #736A56",
"Z. c #4B4965",
"A. c #5C4C62",
"S. c #554965",
"D. c #485967",
"F. c #5C5364",
"G. c #5B556B",
"H. c #525B6C",
"J. c #575866",
"K. c #484A78",
"L. c #465B74",
"P. c #565974",
"I. c #564777",
"U. c #6C4B62",
"Y. c #654963",
"T. c #734B65",
"R. c #645364",
"E. c #625C64",
"W. c #625669",
"Q. c #635C6C",
"!. c #6A5669",
"~. c #775768",
"^. c #6A5D71",
"/. c #655E71",
"(. c #755773",
"). c #45636B",
"_. c #4B656C",
"`. c #4C686B",
"'. c #476467",
"]. c #53626B",
"[. c #57676A",
"{. c #4B6572",
"}. c #466675",
"|. c #566675",
" X c #597677",
".X c #4E7670",
"XX c #666569",
"oX c #746B67",
"OX c #78756A",
"+X c #6B6273",
"@X c #666576",
"#X c #726477",
"$X c #687877",
"%X c #777878",
"&X c #677767",
"*X c #842904",
"=X c #85381A",
"-X c #89310D",
";X c #853C22",
":X c #864325",
">X c #934E31",
",X c #A25C3D",
"<X c #AC674B",
"1X c #8B706E",
"2X c #945D5B",
"3X c #C37A5A",
"4X c #6A8478",
"5X c #778678",
"6X c #7A8E73",
"7X c #85867A",
"8X c #8E8977",
"9X c #CD8366",
"0X c #3B7786",
"qX c #2F7282",
"wX c #535584",
"eX c #52728C",
"rX c #667688",
"tX c #757784",
"yX c #666A8C",
"uX c #6A79A4",
"iX c #827A89",
"pX c #4E8690",
"aX c #678894",
"sX c #73908F",
"dX c #7DA39A",
"fX c #5695A4",
"gX c #6E90A6",
"hX c #77ACAE",
"jX c #75B4C7",
"kX c #898886",
"lX c #869587",
"zX c #989688",
"xX c #889997",
"cX c #969795",
"vX c #8D8B8C",
"bX c #AF9494",
"nX c #93A793",
"mX c #AAAD9A",
"MX c #9595A5",
"NX c #A69DB2",
"BX c #98AAA8",
"VX c #8FAEAD",
"CX c #ACB4B8",
"ZX c #D2A2AC",
"AX c #A9C2BD",
"SX c #8FB1C8",
"DX c #B2B3C9",
"FX c #F2BBC5",
"GX c #8DC5D1",
"HX c #AFCCCE",
"JX c #B1EDFA",
"KX c #90D8E6",
"LX c #C9CDD7",
"PX c #CEDAE9",
"IX c #CFF6F9",
"UX c #E9E8ED",
/* pixels */
". e . . e @ e d d d d o.k { I ^ ~ Y.L O.~ X.o.X.| m.| I { ..U I P ! h i k k r k k h L s y t 5 5 e u k u p p S A N.D D m m g v b ",
"* 5 @ u e e e h k I h o.U { P P L ] ] Y.X.T.o.| W k j { I I o.{ E ~ W f N  . .@.U ^ E s u u o 5 u f b v x A A D S m N N M n b b ",
"i e . u .   @ e h { { } | o.I I ` ` ` ` I n.W  .| k j } h E ! & s Q E k r k k k L L L # y u u u u f h v m v a m a B M M N N n b ",
"f @ u h f n j  .h |  .W  .|  .n.X.` v.....m.@.m.M n W g @ & d o z x r. .g j  .U r L L r # u u f h s f f i i a B M M M N N n j f ",
"! d W g h  .f j k M N g j j  .| E / T.n.@.@. .k m.1X1Xf @     V % @ Q x. .| m.T.] ] [ L d d d f h h f f i u g M N M M M j g h f ",
" .h W e u f e  . .r g k g i M k I +.}  ...j @.;X2X1Xg X l Z V Z z + y r.I j ^ ~ ' ] [ [ L d s s P s s h j f M x.N M g i f j h h ",
"k r I r j  . .bX2Xk i i i i | g j @.k j @.@.ZXFX@.@.2 p zXCXmXmX%Xl * ! Q P L L $.$.$.#.[ [ L E R z s E W j n  .N M j b n ! m E ",
"^ P I r h e k FXbXg e i i g 2X .k m.k  .@.@.FXFXN 6 e N.zXmXnX8X7X> , l Q ! v.$.$.I.$.$.) [ ~ L ) T R d.} b h N N n m m r.r.e.Q ",
"U %.+.{ I r W 2X2XN i g M g g N n n j | 2XbXZXZXN.p O C.8XnXmXnXzXV.> & z ( ~ ) I.I.I.#.#.A.Y.[ G.u.T R.- E d ! e.r.Z Z oXx oXx ",
"%.2XT.{ j u k N | M i g M g g N x.| }  . .@. .M a a o t.C.B.6X> t.>     d ( _ #.#.I.wXwXI.$.] ) vXH.K y._ b.i.i.l.vXLXUXPXV.M.z ",
"..T.T.I I h d i g i g g g g N I n } c.| {  .@.| @.5 O t.S S nX6X8XoXZ * - R ) #.#.wXwX$.Z.[ _ #XrXD.Z.H.f.f.^.%XDXAXHXAXBXa.!.M.",
"..%.+.^ I j g f i k g f g  . .I ! } } } { ..o.m.u X O 8X8X8XmX8XvXOXr.+ + R S.S.wXyXwXwXI.S.yXCXP.L.|.vXG.S.rXxXVXdXxXVXBXXXM.m ",
"%.%.O.+.W k f n f g g d j { | I o.X.c.../ } / p.z l * l OXzX8X1XV.t.l + - _ S.#.#.wXwXK.wX#.W.MX|.|.|.DXyXyXrXsXdXdXsXsXlX[.M.c.",
"%.%.+.Y.W d s n n n f h I ....U ..^ X.U.T.b.b.b.- @ & p 8X8Xa S C.N.x % * ( S.K.K.uXeXwXyXK.f.J.Z.P.I.LX/./.@XaXpXsXpXaXtXE.c.j ",
"%.] %.U.E P ! b h b j j I U ......^ ` v.Y.i.i.i.g.* , * t.D S S r.A &   + H S.P.K.wXwXwXL.|.|.G.tXwXG.DXP.H.4XfXhX4X.X.X@XXXx. .",
"%.%.T.v.P W ! e f h W { ^ U ....O.X.' v.d._ h.R.d.Y % * p S N.S p p c > - K Z.K.uXuXeXwXyXDXPXPXLXMXP.NX#X|.sX4XfX9.'. X$XM.W o.",
"X.X.c.c./ E E } h h P W ^ ^ } ` ' Y.' [ ] U.U.] (.# # @ u 5 C.D S o & % = K SXL.uXSXL.uXwXDXPXPXUX%XF.tXG./.uX$X$Xz.&XcXOXz.l s.",
"c.c.n.c.} E W c.P W W E W { } ..' ] Y.!.U.] ] (.' d # @ o o S O 7 7 p > F F gX8.eXgXaXeX}.NXHXLX#X%Xb.tX@Xy.DX%XvXXXt.oXz.V.r.s.",
"c.c.c.n.X./ / } W / ^ ^ } } / / ] ' ' v.b.d.' ) R.) # % c A S O O S t.z.D.G 9.2.uXDXaXrX}.sXPXLXoXkXR Q.tXG.DXq.f.: : V : V.M.l.",
"X.} } } } / ^ ! ^ ^ ! ^ / ^ } ^ ` v.' ( i.R.R.S.^.) = % t.V.B.N.S C.B.&XrX3.0.>.hXSXDXVX@XtXJ.l.M.oXl.R.y.y.J.f.q.a.XXM.w.s.e.i.",
"/ ..} X.} } ^ W ^ ^ ! / } / / ..n.X.v.b.s.y.+XcXsXu.j.=.XXB.C.OXC.C.B.&X4X1.&.9.hXGXVXHXLXXXxXXXw.Z M.i.F.R.T y.a.z.%XoXs.e.Y i.",
"} X.c...X.c.} ~ ^ ^ ^ ^ ` / ../ ....r.( a.XXxXVXVXk.'.k.xX6X6X&XC.6X6XsX0.0.&.9.IXHXBXxXvXl.w.r.t.OXbXvXiXH f.T R - ( Y Y ( i.v.",
"^ X.o.X.....^ ~ ` ` / ` ` / ` } W X.! z z.xXBXsXSX>.*.-.sXVXlX5X&X6XmXHX0.1.1.5.IXHX'.nX5XE.s.e.mXbXcXDXMXf.h.T F.R e.- R R ' _ ",
"E ..o.^ ^ ^ ^ P X.o.o.c.X.` ` } { / r.x.OXlXVXxXVX0.0.>.0.xXVXBXlXdXAXHX>.1.5.5.JXaX$ ; z.w.s.r.bXcXvXUX+Xy.H NXE.a.!.z z L p.] ",
"^ ^ { { ` { ^ ^ / ^ ` c.n.U.~.~.T.T.T.M.7X6XlXdXdX>.>.0.>.'.4XdXBXCXdX8.2.7.1.5.hXVX:.; H s.i.e.vX8X1XCXW.T y.DXMXs.+ - ~ L L ' ",
"{ ..........` { ^ ` / ` v.n.U.~.~.1X~.C.8X4XdXsXdX0.0.0.>.3.3.`.,.'.}.2.2.2.&.2.*.{.=.=.: H ) s.bXkX^.%XH T g.NX#Xe.* - ~ ( ~ _ ",
"......o...+.` ..X.X.X.` v.v.U.b.T.M.M.V.6X6X6X4X4X0.0.5.:.,.,.:.:.-.-.-.2.&.F 3.,.k.= q.@XtXW.K w.z.a.J.T u.T ) T R : - - ( _ L ",
"{ ............` O.v.v.v.v.U.n.Y.c.b.c.C.6X4X6X4X0.*.*.>.-.4.3.,.'.,.4.:.4.4.F 4.;.u.J q.A.[.G.Z.Z w.w.K K K K = - : - - z L ( L ",
"{ ..........+.O.v.U.v.v.n.Y.Y.Y.g.g.s.OX7X7XlX4XV V -.-.=.:.D.:.=.*.,.4.4.L.:.K = : w.Y H J D.@X[.XXl.q.K K K J - = - * - R L ~ ",
"............+.+.O.+.v.v.v.v.v.v.R.l.l.7X7X8X8XV.> <.=.:.:.:.4.:.'.*.:.:.:.Z.;.H T @ : - q.j.H.].[.XX@X@XG.Z.S.Z.u.H - z z d d z ",
"..............O.X.X.' O.v.v.d.d.g.g.F.kX7X8X6XZ % V G ;.Z.:.:.:.sXk.=.=.G =.H : x   x l : ; ;.'.J.[.H.P.H.P.P.@XG.t.e.w.w.L z - ",
"........U ..] U ` ` O.O.v.v.v.b.g.l.M.cX7X7X5X> > <.: q.:.G ;.:.sX*.*.;.=.: - z r.  x : : *.;.'.j.H.J.|.P.@XZ.u.A.l.l.s.s.g.i.( ",
"P I U U U U ^ ` ^ ] ` d.d.Y.d.v.n.x.OXcX5X&XB.V : % e.Y - V V C <.C <.<.$ ; V + -   i.H ;.:.F }.D.D.H.H.D.S.S.F.g.g.i.a.y.y.y.q.",
"U I ^ U U ~ U ^ ] ` ` v.d.v.v.c.x.r.1XlX4X&X<.<.Z % z c l Z V =..X$ ; <.=.V V - + + g.G.|.:.4.8.8.L.L.D.Z.Z.a.h.d.i.y.) y.) q.H ",
"k P P P L s L P ^ ` ` v.v.Y.d.v.r.x.cXkX4X.XC z.r.& d e y x : > [.=.; =.=.> % % * - y.H.|.4.}.&.8.8.3.3.u.u.u.y.i.) ( ( ( ) T T ",
"{ ..+.X...U ^ X.` ` X.v.' ' d.p.w.oXlX5X4XB.; a.g.E e e d l - > ; $XcXxXXXw.- w.= H y.K }.4.eX7.2.2.8.4.4.4.Z.u.y._ _ _ _ _ _ ) ",
"..o.+.+.+.o.v.v.` X.' v.' v.v.p.t.lX5X4X4X<.=.e.c.W r k s R Y w.y.S.G + H q.Y w.+ H P.K }.1.pXKXqX7.7.5.2.3.Z.Z.h.' ' ' ' ' ] ' ",
"I I { { } ^ ^ X.O.` O.` v.' ' p.z.lX4X4X$X<.a.r.p.o.r k b z z q.= H K T q.- - a.H - H.D.gX7.fXJXqX7.7.7.8.3.D.Z.f.h.S.A.$.' ' S.",
"^ } o.o.o.O.n.v.v.X.X.d.` d.d.i.&XlXsX$X&Xu.f.g.v.T.r # L - ; V j.q.G G J H : q.T G D.D.gXpXKXKXqXqX7.7.8.L.D.Z.Z.S.A.A.S.d.S.S.",
"I ^ ......` X.` O.v.d.` ' d.' i.$XsXlX4X[.j.i.b.Y.Y.# - T G <.>.G 3.k.*.G G H G = K P.D.fXgXJXjXqX7.7.7.8.8.D.D.H.J.G.A.S.S.S.S.",
"^ / ^ ^ ^ ^ ` ` ` ' d.p.d.Y.d.i.4X4X&X$Xz.B.l.s.R.g.) T ;.=.*.*.>.aX>.-.F $ *.= J j.|.4.2.jXJXfXqXqXqX8.8.L.L.H.H.G.G.H.H.H.H.H.",
"~ ! ~ ^ ( ` ` p.p.d.v.d.d.g.A.g.$X4X4X$Xq.k.a.R.f.y.=.;.,.,.6.9.3.IXaX'.4X X;.;.=.D.P.D.4.SXJX0XqXqX8.8.).}.D.H.H.H.H.H.H.L.D.L.",
"E ~ ^ ( ` p.d.d.d.v.g.d.g.g.A.F.5XsX7X5Xu.a.a.F.y.q.=.:.>.>.6..X4XaX>.0.*.F =.k.J ;.:.|.eXjXJXpXwXqX0X}.}.L.L.|.H.H._.].H.).{.).",
"^ ( ` p.p.d.b.b.Y.A.g.R.A.A.S.l.lXlX5X%Xz.M.f.a.u.q.;.:.,.,.6..X&..X0.>.'.'.[.=.j.Z.;.yXeXjXJX0XqX0X}.8.).L.{.H.H._.H.{.{.).}.}.",
"c.c.b.v.b.b.b.R.R.g.h.F.W.A.S.z.5X6X&XOXt.z.a.q.a.;.;.k.k.`.`._..X-.3.<.=.k.BXf.J J G K.}.fXGX0XeXqX9.8.}.).).H.H.[.].]._.{.{.`.",
"b.b.b.M.Y.R.R.F.W.g.A.F.W.J.F.F.&X5X5X%Xw.a.w.a.u.q.=.j.J.J.j.D.k.].].z.CXJ.y.F.Q.A.:.:.-.2.qX1.0XeXeX}.}.{._.].].H.[.[.]._.{._.",
"b.M.R.R.!.R.R.F.W.F.J.W.G.J.Q.$X5XlXlX7Xt.t.w.a.y.q.J K q.w.T Y H F.g.R a.e.i.z R T u.:.3.eX0XfXpX0X0X9.8.)._.[.[.H.[.H.].].].].",
"b.R.R.!.R.R.R.R.R.J.R.W.J.g.@XkXBXnXlX5Xt.t.w.: z H : H R R L ( - R R R.e.R z a.w.y.J.K -.2.&.fXpXpX9.9.6.'.'.D.].[.].].].].].].",
"!.U.R.U.Y.W.!.W.W.W.E.E.J.z.+XcX5XHXM.8Xc N.c c : c H : z x b y   & x Z x x Y i.w.u.f.|.:.F *.aXfXhXaX9.6..X.X,.[.`.[.`.|.{.{.|.",
"U.!.U.R.!.!.!.^.W./.E.G.J.z.XXvXz.cXt.OXx.c p & p Z c : l c p u o & v v x x w.e.T q.u.#X:.-.G |.VXsX4X`.`.k.`.[.`.`.`.`.{.{.}..X",
"!.!.!.!.!.!.^.^./.Q.W.XXXXl.XXxXw.kXV.V.oXp t t y l l * & t o . O . o t y c x w.Y T u.sXZ.j.-.,.PXeX.X6. X'.k.'.`.`.`.`.}.{.}.|.",
"(.!.(.^.^.^.!.^.Q.^.XXG.J.[.oXcXr.vXOXM.C.p p p y y y 5 . o < X X X . o 5 u v A Y x y.vXf.H.u.k.sX*.|.>.'.`..X`.`.`.`.`..X|.}.}.",
"#X(.(.+X^.^.^.Q.XX+XXXl.l.z.&X7Xw.8XV.A x p t p p t t . . X < < < < 7 5 5 5 a m x c i.%Xy.J.j.j.dX XDX X'.0.`.`.`.'.`.}.{.{.{.{.",
"+X#X#X+X+X^.^.Q.@XXXG.J.l.z.t.XXw.oXx t o t t 5 5 5 < . < < < 2 4 4 7 4 2 2 5 i v v r.U.Y y.g.J.J.;.$X,.k.k.[.`.`.`.`._.{.{.{.{.",
"+X+X+X#X#X+X^.+X+XE.z.l.XXV.w.w.A A & p o * p u . 2 5 4 1 1 4 w 8 6 4 w 4 4 6 6 i i m Q Q R a.a.XXE.[.u.k.'.`.k.'.'._._.{._.{.).",
"^.^.+X+X#X+X+X+X+XE.s.[.%XOXt.l A o o x p * p t 4 6 w q q B B B q q w q D B B B i a N u c.E i.i.K sX%Xj.=.k.[.`.`.`._._._.}.{.{.",
"^.@X/.+X#X+X+X+X+Xz.a.V.V.t.c Z p 7 y & & & v x.< B B 0 ,X2X,X>XD :Xq :X>X>XD w 6 6 M N m ! ! p.w.z.XX[.q.k.[.'.).)._.{._._.{.{.",
"Q.Q.Q.@X@X+X+X+X+Xs.a.M.M.w.p > p 5 y c x w.x.N.2 B ;X0 ,X,X<X<X,X,X>X:Xq :Xq w 6 6 i M N m ! / Y r.E.z.q.k.z.j.'.).).).).}._.}.",
"Q.Q./.+X+X#X+X+X+Xs.r.r.t.Z & t 5 t y r.s.M.b.N.6 w =X3 -X;X,X<X9X9X9X<X,Xq q 8 6 1 2 i g n m ! Q Y r.a.q.q.j.'.`.'._.).).).).).",
"@X/.Q.Q.@X+X^.!.E.s.Y r.r.p p t 5 5 v s.E.E.b.A 6 8 9 *X*X-X;X;X9 9 9 q 9 q 8 8 8 1 2 6 a m n ! ! x r.w.w.<.j.'._.'._.).).).).).",
"Q.Q.G.W.W.W.W.R.R.p.Q r.x p t 5 o 5 m a.R.G.s.m B 8 9 -X*X*X-X0 ;X=X0 9 8 9 8 8 8 4 < 5 a m v b m v Q w.R =.z.]._.{.)._.).).'.'.",
"+X/.Q.W.W.R.R.g.R.s.Q m v p t 5 < 5 l Y J.G.a.m 6 8 3 *X*X-X0 0 8 8 0 -Xq q q q 8 4 1 4 i a v v m m m Y R w.D.].D.).).).).).D.6.",
"@XW.G.F.A.R.R.g.M.r.Q x v p t 5 5 o & H u.G.g.b 2 q 9 *X*X*X0 =X=X=X:X>Xq 8 4 1 8 4 4 6 a a i v a m ! x > q.D.k.D.'.D.6.6.'.'.D.",
"A.S.h.h.h.h.i.a.c./ Q m v p y 5 6 5 * - Z.G.p.d < ;X*X*X*X-X3 0 0 0 0 9 1 1 4 8 8 4 4 6 i 7 i a u m m c - w.j.k.D.3.3.3.D.3.D.6."
};
