/* XPM */
static char *simplewall1729266142[] = {
/* columns rows colors chars-per-pixel */
"64 64 52 1 ",
"  c #B17B8E",
". c #B67E97",
"X c #B97F95",
"o c #B78494",
"O c #BA8397",
"+ c #BE849A",
"@ c #BE8A9B",
"# c #BF87A0",
"$ c #C1879D",
"% c #C28C9E",
"& c #C3909F",
"* c #C58DA2",
"= c #C88EA4",
"- c #C78FA8",
"; c #C692A3",
": c #CA95A6",
"> c #CB98A7",
", c #CC96A9",
"< c #CE9AAB",
"1 c #D096AC",
"2 c #D19CAE",
"3 c #CF97B0",
"4 c #CF9CB1",
"5 c #D49EB1",
"6 c #D89EB4",
"7 c #CEA0AD",
"8 c #D3A0AF",
"9 c #D5A2B3",
"0 c #D9A4B6",
"q c #DBA8B7",
"w c #D7A5B9",
"e c #DBA6B9",
"r c #DDAABB",
"t c #DFB1BE",
"y c #E0ADBE",
"u c #E2B1BF",
"i c #DFADC1",
"p c #DFB0C0",
"a c #E2AEC1",
"s c #E3B2C3",
"d c #E9B5C6",
"f c #E7B9C6",
"g c #E8BAC7",
"h c #E7B3C8",
"j c #EBB6C9",
"k c #ECB9CA",
"l c #F1BCCD",
"z c #EEBAD0",
"x c #F4BFD1",
"c c #F3C0CF",
"v c #F6C2D2",
"b c #F8C4D4",
/* pixels */
",3iiihhiihhihhhipsggptpsppfgtwqpssarrrsr9rr99rsqyrqrq8qq888q88uu",
"356iiiii6iiw3w447wwww9www79ww77775<<<>::<99<<99<>;&&%%%&>&>>>8uc",
"33waiihhhhhhpczppssssfhfptrtppppjfjdssrrqysurur9uuqyyqqy88788qub",
"36eahhzziii6ipppfsssgggssrwrsppperrrrrrqqrurrr9>yq888<78qqq88qub",
"36iiiahhpcgppppppptppfptpq7wttrryyssssuy9rrrr94>uqqq98qq888888uc",
"-36wi666ww7777wwppppssptprwqpptt999992<<qrrrrq928>>>2&&>822878uc",
"-33wi666iipppfffprrtrrwwrwwtrtwwrrrqq99998<8<<<<982888888>888qub",
"-3whhhhhpppppppwpfpspppppptpsptprrrrryysrqwwr9rr9878888q888q88uc",
".36iiihiwipppppppppphpppppppptppuyrq9ryyrr9yr<w98q88qq8>888q88qu",
"33iaihiippgpggpgffhptrrwcppgptwtrqeqrrrqru9ur5rr8q>>8q8q8>>qq8ub",
"#33333337wwi7www7477<<747#@@>#@>;:<<<<::@@ @@o@o&&&o&&%&&&&>>>qu",
"36iiihhhhhpppppfpppppfggcpwppcfsrrsffsrrrs9rfri9&7q8q8>qqqqyquub",
"-3i6iiihpppppwtttrrrtpttgpwwpptqqerrrrr99r8rr97;%>8qq88q888888qu",
"33iiiihipppppttttppppgpfpwwtpprrrrrsyyir9y9rr99;qutq8>>q288888ub",
".-333444447777>7>>7wwwww777wqww9<<<<2<<>9serqwq>88>&%$o&$&&&&>qu",
"-36iiihhppggppppqtpppttwpwttrw779qrrrrq9;7;;@@:@&888qqqq>8878qlb",
"336aaaahiaaaiapiwpssyrysyqryyrr9ssuyurrrwqq999w988888062229622yl",
"-36666aaeiiaiiwirsssyyydssysrq9qyyyrrrrrrrr99qrq888q0886229922yx",
"#-666e6aeeeiwwrwrrrreqyssrrsq29rrqrrqqqqqqw99ww98868882<>22921ej",
"--66e66aieeeiwwirerqqqyyr999999r9999q9w97998899<%$%&%$$$:,251>0s",
"-36aeeaaaaiipiiisyrrryasr999rrre99rqq9w9<9rqw07>y66y680y>22922ed",
"-666a6iassshphppdsyrsddsfr9rssrrqerrrrrq9rurrr9>8<226>>2226222yj",
"=136a6aaiiiiiiiiyrqryayrr92qyyrqqrrrrw999wrqw9<:y8200<<0211212yd",
"+=3666iaww4w4w4i2<><9q2>:;:299999999999<299>>:;@6>>2<&:2:;:::,0s",
"$166aaae6eaaiphhssssssar9qqrrrrq9qrr999r999ww9992,::><<,22222,5k",
"$1666aaaeaaahphiyyyyyyyqyrysyuyurrsrrqrrrrrtrqrr052500092955020l",
"#166eaaaeeaaiiiissussssrqrrrrrrr9rrr9999w99w98972225559522225,0l",
"#166666aaaaaii4422<<<<<>9992999q999<<<<<;;:;;>:;:,,<,2,:>2,,2,0l",
"=1666aa6aaaeieiisyrysyyrrrrqrqrr99q99889;><>><2>,2222<,,<22252qx",
"=1666aaaaaaeiahhyyqrrryrysyyarryrrqrwqqw>9w99rr529955252<2,,22ex",
"=16666aaaaaaiiiiyyrysddfrrrrrrq99wq9wqwq>9rwrr9:90952<<2,2,><,5l",
"$=111666aaeae6w42<<>299999qqq9929989wwq9:9r9992%00q5,,2225,<2,0x",
"*166ee0iariiiiii6yyyduyyyyy08665qqee992292;:::;:><>:=&>>:118q8qu",
"=16ya6iiiwippwipy6yyuyyyyyy0y0yyqreee900092256926882188888118>qu",
"*=6666eiwewppwwi6yyyyyy0yyy00yyyqq00eeeee095eeee68088886>8>>>=8u",
"$=336660ieiwiwww66yy6yy8622226609555228625522222><2<>>>1>>&=>>qu",
"*11666wiaeewwwiiyqy66006062668yy69222222>221,22;:>>>::::>>&&>>qu",
"=16eeeiaaaawwippyqyyyyyyy0y00yy089999222:20229211282>>>>>>>>1>ql",
"==1666ei0w064ipiyy6y0yyy0yy0y0096890e962>9y950028q88811811::8>8u",
"X*==::4535947ww466q8y000600882<>2260e0921ey0252;88q68>>>>>::8>qc",
"+=166e660eairwwwyq6yyy22200628622692<:<252>::;;>>>&$&&&>8>>q68qu",
"$=166ee6aaahiiiiyyyyy68<0600008229e9225eye052269>>=&1>=81>>66>qu",
"+=666w66wwwew9wwqyyyyq6>0y6y00600099250y9552222288>8q8>q>>8q8>qu",
"+=1146665554,4496680602<00y0y00869921250yyyeeere11=>88:8>>18>&ql",
"$=115ew606w6749q00000206000y00002622>122$;;%%;*%>>$&>>%==::=&%8u",
"$1366wieiewwwwryy000yyyy00000008986222222ee2609,>8>>8>&>>>>>&>ql",
"$=366iee0ewrwweyy0006yqy0000y600989996222692<22%8q886>>6818818uu",
"X*-,36eewwrwwwe0y0080086800y000026999982>9e2<22%8688>&&8>>>188yu",
"X$=1365565455944:20yy622y20y062002269222e052::::>8>>&&>8>>8688qu",
"+*1666w0w6w0wiww6yyuyyyyy06yy260e929y996eq096555668>116q68>1>=yu",
"X*160iawwwiapppi606yy5666yyy022yy90yyyyyq09990q0qq686666q8::>=qu",
"X$11600ww0wiiww4yyyyyyyyyy6yy66y022906ee2252555211>888>>1:&:==6l",
"X$=116654499944,1>>&:&::$%%&&%&12>:22222,552<22:>>>>>>&$&%&&&=2u",
"+==1166wwwiiwiwiyyyyyyyyy0yyyyyy622609692005292:>11>11:&>:>2>>6u",
"$==116eeaapppppiy0090ye02<><y622y02eee0e20e2252*18881>:>62266>6u",
"$===,6aaeiiw444iye060yeey82yyyy662229225:592<2:%1881>>=>6>12>=6u",
" X=143,-5,40w444::>12>&$=%%>2:;*;;::=;=&;,22,:;*552,:,<,:>=:626d",
"X$=66553w60eiw9wyyyyyyy9yyyyyyeee999899959922,,,2<<,,<,:26>1229k",
"$*,36weeeewaiwww09000062e90e6222ee999eeyre052,222<><592<22&&::2j",
"X$=,46eeiewiwwwwy992609609952;,2222222269552>:>,2,,2992<&&%%;&2d",
"X+*=,66erww9ww4wy96299996292>>,922222299:,2<::;:2::<2:;;::::2>6k",
"+$*1,5wewwww9www222226222222212255222626*:<52<::2,:<<;*;<222216j",
"+$=155eewri44wrwqe0eyee0ye0ee09e22269222>2555<,:5229<*;5<2,12;2l",
"++=1360wwew7wwir86680092e22602222590922>25995<,,2,25:%*5,2>>1>ev"
};
