/* XPM */
static char *toto1729178569[] = {
/* columns rows colors chars-per-pixel */
"64 64 247 2 ",
"   c #0A0B0D",
".  c #070506",
"X  c #160C08",
"o  c #1D130E",
"O  c #0D0D13",
"+  c #0F0F1A",
"@  c #100F1E",
"#  c #160E12",
"$  c #0E1115",
"%  c #0D131B",
"&  c #07131F",
"*  c #131316",
"=  c #1B1514",
"-  c #13131C",
";  c #19161B",
":  c #141A1C",
">  c #1B1A1D",
",  c #1A1814",
"<  c #291708",
"1  c #371D05",
"2  c #221C13",
"3  c #231D1D",
"4  c #291C15",
"5  c #2E190B",
"6  c #1D281B",
"7  c #2D2114",
"8  c #2C241C",
"9  c #222B1D",
"0  c #272419",
"q  c #332315",
"w  c #382916",
"e  c #33241B",
"r  c #332A1C",
"t  c #3C2C1C",
"y  c #392615",
"u  c #392209",
"i  c #091828",
"p  c #131321",
"a  c #141922",
"s  c #1B1B22",
"d  c #191B29",
"f  c #221E23",
"g  c #1C2625",
"h  c #152738",
"j  c #242323",
"k  c #2C2422",
"l  c #232D23",
"z  c #2C2B25",
"x  c #2C2C2A",
"c  c #25272A",
"v  c #332622",
"b  c #342B24",
"n  c #3B2C23",
"m  c #342D2B",
"M  c #3B2E2A",
"N  c #362724",
"B  c #2B3126",
"V  c #2E312C",
"C  c #25322C",
"Z  c #34332C",
"A  c #3B332C",
"S  c #383729",
"D  c #2A2D33",
"F  c #262D34",
"G  c #332F34",
"H  c #2D3233",
"J  c #2C353A",
"K  c #283839",
"L  c #333533",
"P  c #3C3532",
"I  c #343A34",
"U  c #3B3B35",
"Y  c #34343B",
"T  c #353A3B",
"R  c #3B3A3C",
"E  c #3A363C",
"W  c #42260B",
"Q  c #432B13",
"!  c #422B1C",
"~  c #48341B",
"^  c #53361D",
"/  c #422E24",
"(  c #443424",
")  c #4E3B24",
"_  c #43342C",
"`  c #473828",
"'  c #523C24",
"]  c #563C26",
"[  c #423632",
"{  c #443934",
"}  c #433D3B",
"|  c #4A3C36",
" . c #523E33",
".. c #613F23",
"X. c #411F04",
"o. c #3B433D",
"O. c #36413B",
"+. c #55402B",
"@. c #5D422C",
"#. c #544027",
"$. c #43423D",
"%. c #4C423C",
"&. c #4E4036",
"*. c #554334",
"=. c #5B4435",
"-. c #53443B",
";. c #5B4A3E",
":. c #644226",
">. c #65442A",
",. c #664C38",
"<. c #704E33",
"1. c #1D354B",
"2. c #1A3955",
"3. c #192C41",
"4. c #253A4C",
"5. c #283A45",
"6. c #353A43",
"7. c #3A3A43",
"8. c #393843",
"9. c #243C53",
"0. c #283F59",
"q. c #423E44",
"w. c #2A414C",
"e. c #3C4543",
"r. c #394549",
"t. c #2B435B",
"y. c #284558",
"u. c #384A58",
"i. c #3E5055",
"p. c #1A4869",
"a. c #2B4564",
"s. c #284967",
"d. c #334C64",
"f. c #324C69",
"g. c #34526E",
"h. c #385266",
"j. c #295677",
"k. c #335473",
"l. c #355A79",
"z. c #2A506F",
"x. c #3C617C",
"c. c #1B425F",
"v. c #424542",
"b. c #4C4542",
"n. c #444948",
"m. c #584B45",
"M. c #5D524B",
"N. c #434B52",
"B. c #4B5352",
"V. c #64544C",
"C. c #6C5A4D",
"Z. c #685446",
"A. c #755B4A",
"S. c #685C55",
"D. c #6A574E",
"F. c #6E6358",
"G. c #796557",
"H. c #7B604D",
"J. c #556575",
"K. c #786B64",
"L. c #7B716A",
"P. c #6D6A6D",
"I. c #825E45",
"U. c #876B57",
"Y. c #8D735D",
"T. c #8A7055",
"R. c #91745D",
"E. c #9A785D",
"W. c #826349",
"Q. c #857163",
"!. c #8B7668",
"~. c #917662",
"^. c #957A64",
"/. c #957C6B",
"(. c #9A7E69",
"). c #9B7D65",
"_. c #887B74",
"`. c #89766A",
"'. c #9D826C",
"]. c #95806D",
"[. c #9D8472",
"{. c #99877B",
"}. c #8D837B",
"|. c #A1856E",
" X c #A48369",
".X c #A18673",
"XX c #A48B75",
"oX c #A48B7A",
"OX c #AA8E7A",
"+X c #AA8B74",
"@X c #AC927C",
"#X c #A69079",
"$X c #B3947B",
"%X c #275C81",
"&X c #346283",
"*X c #2D6388",
"=X c #978F8A",
"-X c #A89587",
";X c #B39A84",
":X c #B49C8B",
">X c #BA9E8B",
",X c #B79A84",
"<X c #AB9D91",
"1X c #AB968A",
"2X c #BDA28C",
"3X c #B5A08F",
"4X c #BCA492",
"5X c #BAA799",
"6X c #ACA29B",
"7X c #A09FA3",
"8X c #BDAEA2",
"9X c #BDB1A5",
"0X c #C3A48B",
"qX c #C7A68B",
"wX c #C1A693",
"eX c #C5AA95",
"rX c #CBAC95",
"tX c #C4AB9B",
"yX c #CAAE9A",
"uX c #C9A690",
"iX c #CDB29C",
"pX c #C9B197",
"aX c #D3B49D",
"sX c #D5B79C",
"dX c #D1AF95",
"fX c #C3AFA1",
"gX c #C5B3A4",
"hX c #CCB4A3",
"jX c #CCBBAC",
"kX c #CBB7A7",
"lX c #D2B6A3",
"zX c #D5BAA4",
"xX c #DABCA5",
"cX c #D5BCAA",
"vX c #D9BEAA",
"bX c #D1B7A8",
"nX c #CBBDB1",
"mX c #D0BCB1",
"MX c #E1BEA5",
"NX c #C19F84",
"BX c #DCC2AC",
"VX c #D7C1AC",
"CX c #DDC3B1",
"ZX c #D8C6B6",
"AX c #CCC2B8",
"SX c #E1C2AA",
"DX c #E3C8B4",
/* pixels */
"1 ~ S 7 o z A N / ( ! q 5 r Z Z Z V x V V Z x x x 6 * O .     O O   $ * ; j H R x R $.L x V L L V I I V B O.S B B B C B l l l l ",
"< ~ ~ 2 o b A b N / / q q N Z x Z V V Z x x j 6 * * O       $ O O       $ ; j z L I U I I U I V H I V V S O.S 9 S B B 9 l l l l ",
"< ~ S 7 o b A M e / ! e q b Z z V H V x D g * $ .   O O O O O O O     O   $ : : c C x x I o.R L I I I I S O.O.O.B B B B C l l C ",
"u ~ t 7 2 b P M e t t q e b Z z Z H c j > *   . O O O * - O * O $ * * $ O O O $ - * - > x R v.v.o.o.O.O.o.o.o.o.B 9 9 B l l 6 l ",
"< ~ S 7 2 S U A e n y q 7 b Z x x c > $ O O O $ - $ - @ * + @ @ @ @ - - - + O - O     O p x q.B.v.e.o.o.e.o.o.B.C l 6 l 9 6 6 9 ",
"< ~ ~ 7 2 B { S n n e 4 0 b m x c s ;     O $ * - + + + + + p p + @ p - - O O - - * O O $ > G n.n.e.o.o.o.o.o.$.K l 6 6 9 6 6 9 ",
"u ~ S 7 2 B O.S v N e 7 8 b x c ; - O O O + $ @ O + + + @ @ @ p + @ p - @ @ - - p - - - + * j J N.e.e.e.o.O.O.i.O.C 6 l 9 6 9 l ",
"u ~ ) 7 2 S &.B r N r 8 k b c j   O + @ * @ @ + p - p p - p @ @ @ p p p @ + p p - - - p - O - s B.n.r.r.i.O.i.i.w.C 6 9 9 6 9 B ",
"1 ^ ~ 7 2 U $.B z r 8 8 v z 3 O * - % @ @ $ @ @ @ @ @ @ @ @ @ @ p p p p @ @ p p @ p - @ - + - - e.n.B.r.r.r.i.i.i.O.6 6 C 6 6 9 ",
"1 ~ ) 7 0 S o.Z z 8 8 k z j ; * - - - - - - - @ @ @ @ @ @ p p @ @ p p @ p p @ - - @ @ * - - - % g K w.5.K K 5.5.w.C C C C C 9 O.",
"1 ^ ( 7 0 S $.I z 8 k b k ; * - - - - - - p - p p - p @ p p p p p p p @ p - - p - - * @ - $ - % i g K 1.3.1.4.4.w.3.C K O.V B O.",
"1 ^ ) 7 0 I $.I V 9 z A z * O - - * - - * - - - @ p @ @ p @ p p p @ p p p p p - p p - - - - * % & h K w.1.w.4.4.w.K 5.w.O.S S O.",
"X.^ ^ 7 0 O.$.I V l b Z j O O - * * - $ * - % * @ - @ - - p - p p p p p p ; - p p s : > : : - % & i 1.4.4.1.2.4.9.5.5.5.K L I o.",
"X.^ ) q 0 U $.I z z z z 3 O + - - - : * - * - - @ * - - p p p p p p p p ; p p - p > s s s s ; : & i h 4.9.1.1.2.y.9.5.6.K I U U ",
"W ^ ) 7 0 O.o.I C z z k , $ + - > ; : - - * ; - - ; - p > s s a p p p p p - ; ; s s s > > > - % i i 3.9.0.2.2.2.0.0.5.5.J T R U ",
"W ^ ' q 7 o.v.H x V x s * - - % g s s s : ; - - ; > p s d d d d p p s p p ; p - ; > > s : : - * + i h 2.0.2.2.0.0.9.9.4.5.R R L ",
"W ^ ) w 7 O.%.I c D D a % $ % - g a s % - - - > * s ; p s a d a i p p d - p p O * $ : $ % % : : - O 3.2.c.p.2.y.y.y.a.0.5.J P S ",
"W ^ #.w 7 U $.I F J F g % $ * % a a - i - : - > @ f * ; - p d p d p d d d s f * : 6 : : : : : : f O 3.p.p.p.2.y.y.d.f.a.4.J I ` ",
"W ^ #.w 7 S U I J H g g % % : % a a a p s : > > # f # ; s - s + p p p - s ; 3 ; : , : 6 : : : : ; . h p.p.p.c.d.y.d.g.f.w.K Z S ",
"W ' #.w 7 n U H J J g : $ * : : i : a a p ; ; ; # f @ 3 s - c - p p p + f ; ; > , : % : 6 : : * = . h s.p.p.s.s.0.d.g.g.y.K B S ",
"Q #.' w q b U H D F g % $ % : ; p a a : : ; * * = f f f f f f d c f f ; Z > f x , , = ; p f p ; o   h s.z.p.s.y.0.d.g.k.s.K l B ",
"W ^ ) w 7 b Z L H c s $ $ ; ; * : s p p ; ; , = f = M 3 f m ; f f c m ; U 3 b | 3 , , * f p p ; X = h s.j.p.s.y.y.a.z.l.s.1.C O.",
"Q ^ ) w q b I L L D g * * , =   p a p ; ; ; 3 3 _ o q.k f q.# N 0 z A 2 %.8 P M.v f > ; ; f p ; o P h 0.l.z.s.g.a.0.z.j.z.1.C O.",
"Q #.) w r A S L T H g : * , * . : - - ; s 3 k v q.4 D.N N m.# M k M | 8 M.n %.K.A v 4 3 ; ; ; # [ K.u.a.&Xz.p.u.a.a.s.j.g.w.O.O.",
"Q #.~ w 7 S Z L I x s L * X . = s : s ; ; f v [ m.X _.e M V.4 _ [ r ;.0 ].&.S }.q.N / = f f f # } =Xu.x.l.j.z.d.a.a.a.%Xk.0.Y T ",
"Q #.) w r b Z Z R x x c * X X . ; : s * f _ / q.G.e {._ q.U.4 q.S ` C.) ].&.t ].V.M | 4 = # @ ; P =Xi.l.z.l.l.f.f.0.a.k.k.0.K I ",
"w #.#.w r S Z I R j R j 0 x b., * s s   k [ _ V.G.v _. . ._.5 m.Z.G.F.t C.&.n #X`. .V.N o # # N m.7XJ.x.j.*X&Xf.f.a.s.%Xg.y.K O.",
"u #.) w r n A I L z R Z 0 b.L.k * f , # 4 q.[ D.D.5 A. . ._.5 G.;.G.=.y Z.A.;.3X:XZ.G.| 5 4 = [ P.7XJ.x.j.*Xl.f.g.a.z.%Xg.y.I O.",
"Q #.#.r r S A U L L R { X m.L.o > j = ; f M.q.Q.Q./ D.-.=./.y /.F.Q.Z.C.#X-XH.].oXD.Q.D.< o e q._.}.j.&X%X%Xl.l.g.s.s.l.l.w.O.O.",
"Q #.#.w r S U U L $.P } . $.K.r x s ; G N F.K.(.-XD.I.D.m.U./ [.Z.C.,.A.#XoXH.,.U.H.=X/.< X _ S._.P.f.%X*X%Xk.l.g.s.s.k.h.w.O.O.",
"Q #.#.w r S { U P R P U o { _.b.b.s ; b.N S.K.=X1XQ.U.A.A.Z.] >X~.G.U.{.wXtXiX>X/.-X>X-X5 o G.}.K.J.k.&X*X%Xj.k.g.a.s.k.s.O.B S ",
"~ #.#.w r S U U R o.U Z 2 r }.M.S.s 3 m.e M.C./.oXQ.U.U.Q.Z.A.yXoX/.@X3XwX>XbXtXhXbXwX:XN ! =X6Xq.i.k.l.%X%X&Xk.g.a.p.g.z.O.O.O.",
"W #.#.w S Z S T I T T I 9 9 o.F.F.! o _./ !.fXwXtX,XuX,X(.R.I.uXyXrXeXeXrXiXaXzXzXgXkX5XF.F.<XP.5.s.x.l.z.z.j.l.s.s.s.s.t.w.5.6.",
"Q +.+.( b S I R K O.O.I r 6 O.%.G. .X Q. .{.bXyXbXyXbXuXuX).I.aXaXiXhXaXaXzXzXzXiXzXkXgX{.Z.S.v.4.s.g.k.l.l.k.s.z.s.d.u.u.5.5.5.",
"Q +.+.n t Z P I e.T I I S l 2 o D.D.5 !.U.1XbXbXxXlXMXaXdX).I.uXsXlXzXxXxXxXxXzXhXDXhXgX5X( 2 Z i.u.u.h.d.h.u.t.y.w.r.r.6.T L I ",
"! ] +.t n A L I Z I S O.o.S r 0 m.D./ !.1X4XbXbXlXlXMXaXMX).I.uXxXzXxXzXxXsXxXaXzXVXtXgX5X< X -.n.N.N.i.r.r.i.i.e.7.7.$.$.{ A [ ",
"Q .. ./ M A U R U $.b.$.b n { *.Z. .! D.bXtXbXbXbXMXxXbXlX$XE.dXvXzXzXzXsXzXsXxXBXiXhXVX].X ` K.%.%.b.%.b.b.%.%.%.&.-.*.=.*.*.=.",
"/  .*._ / [ [ } $.U Z A -.S.G.K./.y 5 ! >XbXbXbXbXMXbXMXxX0X,XaXBXxXzXzXxXxXxXxXBXiXzXCXC.7 G.-X_.H.=.] *.;.*.*.*.*.+.@.=.>.>.>.",
"/ ,.-./ n M M P k k _ V.{.8XgX5X3X/ ! < A.bXbXbXvXvXxXxXxXaXlXaXzXzXxXxXxXxXxXxXzXzXhXbX@.*.1X5XiX$X^.A.,.>.@.,.@.@...:.:.] :.:.",
"/ q. ./ N b N n A F.-XgXgXgXkXlX5X,...5 y wXtXbXvXcXvXMXxXMXDXrXiXlXxXxXxXxXxXaXaXBXwX4X~ G.gXkXyXsXdXNXT.>.>.<.>.:.:.:.:...:.>.",
"/ _ _ N N N v V._.8XbXfXfXhXbXtX(. .Z.X.5 /.wXbXzXbXxXxXvXvXbXlXcXzXzXaXxXxXsXMXxXSX2XY.+.{.hXhXaXdXdXdXqX+XI.>.^ >.<.>...>.] ,.",
"m _ _ N M M [ Q.6XgXmXbXbXhXuX,X!.W.~.Z.y I.4XvXvXvXvXvXvXvXxXzXvXBXCXBXMXxXsXsXxXuX|.^.H.:XzXzXsXsXsXsXdXqX$X).W.>.] ] <.,.@.,.",
"m M [ G M [ m.1XkXkXcXcXxXyX,X).(.-XuX(.]  .(.wXlXbXvXmXvXxXvXbXpXhXzXBXxXxXsXMXsX+XT..X;XhXcXzXlXzXaXiXsXsXaXeX,XU.~ u ! ` *.Z.",
"G G G N M q.V.5XkXhXhXzXxXuX+X(.wXyXfX,XU.A./.~.eXhXvXvXlXhXyXhXDXDXBXBXxXMXsXsXqX).E.,XaXvXzXhXpXzXsXiXaXxXsXrXaX0XG.) 5 q | -.",
"G G E G E M V.fXhXiXhXzXdXuXNXNXyXlXuXuX,XoX:XR.XX>XhXvXVX5X2X3XtXeXwXiXBXxXdXdX).+X$XdXvXxXlXlXbXBXzXiXrXaXzXiXeXVXwX{.S.A A M ",
"8.G G G [ M m.8XkXbXzXxXsXdXdXMXbXbXtXbXlXuXyX-XH.^.;XyXzXVXpX4XXXXX$XpXBXxXqX$XT.$XdXuXxXxXvXzXvXcXzXpXeXrXiXBXyXkXgXZX<X%.Z m ",
"8.F G 8.q.N q.wXkXhXyXrXdXMXMXMXMXMXlXMXvXbXbXuX'./.~.oXwXVXVXhXjXbXxXBXSXrX+XT.E.NXMXqXMXzXvXvXzXzXlXiXeX,X0XiXzXhX<XAX<X{ A P ",
"6.D G 8.[ k [ -XtX4X>X,XdXMXMXaXlXbXbXbXvXvXvXvXCX:XU.U.XXtXzXsXbXzXzXzXrX,X XT.+XdXsXNXSXvXvXxXcXbXvXBXpX$X+X>XiXcX5XgX}.A U Z ",
"7.F J 7.L m } | }.[.-XiXMXxXxXMXMXvXvXvXvXvXMXbXbXlXdX,X|.].$XVXvXrXxXxX.X+XT.'.yXyXyXlXjXVXzXVXVXzXzXzXiXpX$XU.@XrXcX<XF.A n $.",
"6.5.J Y E } b.| V.{.hXDXxXvXMXMXbXmXvXmXbXvXbXbXaXbXMXbX$XXX'.|.>X,X>X,XR.).^.2XlXbXbXbXcXVXVXVXBXzXVXzXzXaX2XR.^.@X-XQ.-.S Z S ",
"6.6.6.G T L z b V.-XDXCXhXaXxXxXbXvXvXvXvXvXvXyXxXcXvXvXsXeX;X#X).~.R.Y.U.|.#XxXbXvXzXhXCXvXVXzXBXzXzXBXzXsX0X'.!.].K.-.n U { Z ",
"J 7.6.Y $.P U D.=XhXZXBXaXDXMXxXDXvXvXmXvXvXlX>XvXxXxXvXVXVXzXsX,X.XU.Y.+X>X2XVXzXvXiX4XvXvXVXsXzXzXzXzXzXlX2X.X^.Q.Z.S A } o.L ",
"J T H T I k n.=XjXjXkXkXbXvXSXBXvXbXbXDXvXuX,X>XbXvXxXBXBXBXsXpXxXbX;X-XeX2X2XpXlXzXrXOXVXzXzXzXxXzXzXxXiXeX:X].Q.Z.{ M A R P L ",
"6.Y H L m L P.AXAXAXVXVXcXhXlXvXvXvXvXvXtX(.-XyXvXvXBXBXsXzXxXzXxXvXlXrXpX#X2XzXzXzX0X).zXsXxXzXBXlXzXzXwX;X[.G.Z.| b A R I J T ",
"T H Y R R S.7XAX9X9XAXZXZXVXVXCXvXcXbXwX-X(.>XlXzXvXxXlXsXsXBXBXpXkXhXwX$X].pXVXxXxX2XT.sXsXzXVXxXiXlXiX;X].G.Z.&._ P R R R Y T ",
"T L I L z v.S.M.F.L.}.6XgXjXVXjXvXbX>X(.(.>XtXuXeXlXzXzXVXVXzXpXCXkXiX4X#X].zXxXVXVX$XH.pXpXsXsXaXrXyXwXoXQ.V.| b { $.R Y Y 6.J ",
"c L T I L I E [ I &.[ &.Q.5XAXjXbXwX(.!.U.~./.R. X+X2XpXsXsXsXzXVXpXpX;XY.[.kXpXVXsX#X].@XpXpXsXuXbXmX3XQ.;.[ U { R E R 6.T 6.6.",
"> c L L P P U [ U $.P M { V.{.AXbX>XoX(.(.(.(.(.].].'.].R.].'.#X#X@XpX3X].XXzXVXlXzX3XXX2XzXkXiXvXfX-XU.m.| [ | U E E T E 6.Y 6.",
"- c Y R E R E G A } $.| M k M.6XbX1X/.(.1XOX(.OX].'.'.'.].T.E.'.Y.#XeX$X].XXpXkX5XcXmXmXVXVX8XpXfX=XD.[ / P [ } E E R R 6.R 8.R ",
"c L R R 7.7.} G U R } n.v.L $.P.fXOXQ.Q.(.OXOX(.E.'.|.#X|.'.'.'.Y.#X4X@XT.#XgXpXcXCXmXgXVXAXVX9XU.V.| M [ } E T R R 6.8.R 8.E R ",
"Y E 7.8.8.8.8.Y q.q.G G q.E E q./.(./.W.H.~..XXX'.'.].'.).'.'.).R.,XuX,X#XeXVXVXmXkXgXnXnXgX=XK.[ [ [ [ q.8.E 8.7.E 8.8.8.E R } ",
"8.6.8.E 8.8.8.8.8.q.8.8.E Y G N Z./.-XU.@.@.A.Y.].'. X'..X X^.R.(.0XiXdXpXVXVXVXkXkXmXnX<XQ.M.M [ q.q.q.Y 8.8.q.7.7.7.E R R } E ",
"8.8.Y Y 8.8.q.8.G 8.8.8.q.G f f _ U.-X(.=.W ^ ,.W.T.'.'.|.).^.).uXaXlXlXxXzXgXgXcX5X1XK.q.G  .b.q.q.[ 8.8.6.7.r.7.6.8.8.8.} [ } ",
"8.8.8.8.8.q.8.8.8.8.8.8.8.D d f y ,.(.oXA.) Q ' R.].'.'.).(.,XuXdXaXdXrXaXhXtXhX=XS.| | [ q.q.G [ E [ 8.q.N.7.6.6.7.8.8.} E } [ "
};
